<svg xmlns="http://www.w3.org/2000/svg" xmlns:xlink="http://www.w3.org/1999/xlink" preserveAspectRatio="xMidYMid" width="1024" height="768" viewBox="0 0 1024 768">
  <defs>
    <style>
      .cls-1 {
        fill: #a9a9a9;
      }

      .cls-1, .cls-2, .cls-3, .cls-4 {
        fill-rule: evenodd;
      }

      .cls-2 {
        fill: #797979;
      }

      .cls-3 {
        fill: #d6d6d6;
      }

      .cls-4 {
        fill: #fff;
      }
    </style>
  </defs>
  <path d="M399.000,106.000 C541.958,103.427 609.879,164.274 681.000,235.000 C705.664,259.331 729.336,283.669 754.000,308.000 C716.289,321.862 714.195,323.199 272.000,492.000 C248.336,467.669 224.664,443.331 201.000,419.000 C146.267,363.415 66.300,290.904 143.000,203.000 C153.933,190.470 169.307,177.746 183.000,169.000 C222.788,143.588 272.325,129.026 323.000,116.000 C348.331,110.367 373.669,107.336 399.000,106.000 Z" class="cls-1"/>
  <path d="M753.868,307.089 C749.791,373.673 746.444,423.226 742.287,478.689 C718.169,589.937 643.900,671.983 560.832,712.276 C466.372,758.094 294.047,818.914 271.543,655.830 C269.227,639.046 270.285,613.179 270.540,592.631 C271.263,534.402 271.397,520.107 271.370,491.223 C672.217,338.439 697.661,328.180 753.868,307.089 Z" class="cls-2"/>
  <path d="M753.468,307.232 C769.416,322.871 785.369,338.514 801.317,354.153 C819.381,370.266 847.319,393.582 870.480,420.314 C882.060,433.679 892.445,447.899 899.804,462.499 C903.483,469.798 906.406,477.193 908.343,484.624 C909.312,488.339 910.034,492.064 910.481,495.790 C910.705,497.653 910.860,499.516 910.942,501.379 C911.025,503.242 911.035,505.104 910.969,506.965 C909.781,540.558 887.895,564.090 868.105,580.015 C816.744,621.346 709.435,661.758 619.891,663.366 C617.173,663.414 614.470,663.438 611.782,663.437 C609.095,663.436 606.423,663.411 603.768,663.362 C598.456,663.262 593.207,663.066 588.020,662.776 C577.647,662.195 567.522,661.238 557.642,659.924 C537.883,657.297 519.103,653.247 501.269,647.944 C465.598,637.340 433.723,621.721 405.243,602.490 C360.810,565.106 316.313,527.726 271.481,490.462 C557.576,383.527 579.174,374.454 753.468,307.232 L753.468,307.232 Z" class="cls-3"/>
  <path d="M625.163,6.031 C758.285,3.985 773.448,71.671 761.851,209.180 C759.856,242.371 757.548,267.199 755.865,308.763 C663.673,344.735 495.988,408.157 272.967,491.000 C272.634,490.668 272.301,490.336 272.003,489.962 C271.946,425.881 271.758,323.046 282.944,276.897 C309.228,168.457 390.091,88.911 482.488,47.856 C511.950,34.765 541.988,23.876 574.279,14.994 C590.457,10.301 607.495,7.077 625.163,6.031 Z" class="cls-4"/>
</svg>
